<svg width="25" height="25" viewBox="0 0 25 25" fill="none" xmlns="http://www.w3.org/2000/svg">
<path d="M3.3213 17.3406V21.0906H7.0713L18.1313 10.0206L14.3813 6.27059L3.3213 17.3406ZM22.9313 18.4506L18.6813 22.7006L13.4813 17.5006L15.2513 15.7306L16.2513 16.7306L18.7213 14.2506L20.1413 15.6706L18.6813 17.0906L19.7413 18.0906L21.1613 16.6906L22.9313 18.4506ZM6.9313 10.9206L1.7113 5.73059L5.9613 1.48059L7.7213 3.25059L5.2513 5.73059L6.3213 6.79059L8.7813 4.31059L10.2013 5.73059L8.7813 7.14059L9.7813 8.14059L6.9313 10.9206ZM21.0313 7.09059C21.4213 6.70059 21.4213 6.09059 21.0313 5.68059L18.6913 3.38059C18.3213 2.99059 17.6713 2.99059 17.2813 3.38059L15.4413 5.21059L19.1913 8.96059L21.0313 7.09059Z" fill="white"/>
</svg>
