<svg width="25" height="25" viewBox="0 0 25 25" fill="none" xmlns="http://www.w3.org/2000/svg">
<g clip-path="url(#clip0_3357_4324)">
<path d="M22.4751 2.09058H2.16744C1.67781 2.09058 1.20824 2.28213 0.862015 2.62311C0.515794 2.96408 0.321289 3.42655 0.321289 3.90876V20.2724C0.321289 20.7546 0.515794 21.2171 0.862015 21.558C1.20824 21.899 1.67781 22.0906 2.16744 22.0906H22.4751C22.9648 22.0906 23.4343 21.899 23.7806 21.558C24.1268 21.2171 24.3213 20.7546 24.3213 20.2724V3.90876C24.3213 3.42655 24.1268 2.96408 23.7806 2.62311C23.4343 2.28213 22.9648 2.09058 22.4751 2.09058ZM8.25975 14.0906C8.4556 14.2352 8.58508 14.4506 8.6197 14.6893C8.65433 14.928 8.59126 15.1704 8.44437 15.3633C8.29748 15.5562 8.0788 15.6837 7.83645 15.7178C7.59409 15.7519 7.34791 15.6898 7.15206 15.5451L3.45975 12.8178C3.34511 12.7332 3.25206 12.6234 3.18797 12.4971C3.12388 12.3709 3.09052 12.2317 3.09052 12.0906C3.09052 11.9494 3.12388 11.8103 3.18797 11.684C3.25206 11.5578 3.34511 11.448 3.45975 11.3633L7.15206 8.63603C7.34791 8.49137 7.59409 8.42925 7.83645 8.46335C8.0788 8.49745 8.29748 8.62496 8.44437 8.81785C8.59126 9.01073 8.65433 9.25319 8.6197 9.49187C8.58508 9.73055 8.4556 9.94591 8.25975 10.0906L5.55167 12.0906L8.25975 14.0906ZM15.0548 5.97694L11.3624 18.7042C11.331 18.821 11.2762 18.9305 11.2012 19.0262C11.1263 19.1219 11.0327 19.202 10.926 19.2616C10.8193 19.3213 10.7016 19.3594 10.5797 19.3738C10.4579 19.3881 10.3343 19.3784 10.2163 19.3451C10.0983 19.3119 9.98827 19.2558 9.89256 19.1802C9.79684 19.1045 9.71739 19.0109 9.65887 18.9046C9.60035 18.7984 9.56392 18.6817 9.55172 18.5615C9.53953 18.4412 9.5518 18.3197 9.58783 18.2042L13.2801 5.47694C13.3511 5.24937 13.5099 5.05829 13.7223 4.94476C13.9348 4.83124 14.184 4.80432 14.4164 4.8698C14.6488 4.93528 14.8459 5.08793 14.9652 5.29495C15.0846 5.50197 15.1167 5.74684 15.0548 5.97694ZM21.1828 12.8178L17.4905 15.5451C17.2947 15.6898 17.0485 15.7519 16.8061 15.7178C16.5638 15.6837 16.3451 15.5562 16.1982 15.3633C16.0513 15.1704 15.9883 14.928 16.0229 14.6893C16.0575 14.4506 16.187 14.2352 16.3828 14.0906L19.0909 12.0906L16.3828 10.0906C16.2859 10.0189 16.2042 9.92921 16.1424 9.82648C16.0806 9.72375 16.04 9.61005 16.0229 9.49187C16.0057 9.37368 16.0124 9.25333 16.0425 9.13768C16.0726 9.02204 16.1255 8.91336 16.1982 8.81785C16.2709 8.72234 16.3621 8.64188 16.4664 8.58105C16.5707 8.52023 16.6861 8.48023 16.8061 8.46335C16.9261 8.44647 17.0483 8.45303 17.1658 8.48265C17.2832 8.51228 17.3935 8.5644 17.4905 8.63603L21.1828 11.3633C21.2975 11.448 21.3905 11.5578 21.4546 11.684C21.5187 11.8103 21.5521 11.9494 21.5521 12.0906C21.5521 12.2317 21.5187 12.3709 21.4546 12.4971C21.3905 12.6234 21.2975 12.7332 21.1828 12.8178Z" fill="white"/>
</g>
<defs>
<clipPath id="clip0_3357_4324">
<rect width="24" height="24" fill="white" transform="translate(0.321289 0.0905762)"/>
</clipPath>
</defs>
</svg>
